# xmcd
#
# Track frame offsets:
#	150
#	15845
#	29977
#	47272
#	60260
#	82585
#	93082
#	104830
#	117102
#	130205
#	145032
#	162980
#	179420
#
# Disc length: 2547 seconds
#
# Revision: 0
# Processed by: cddbd v1.4PL0 Copyright (c) Steve Scherf et al.
# Submitted via: dBpowerAMP V4.0
#
DISCID=9909f10d
DTITLE=Hillbilly Idol - Town and Country
DYEAR=1999
DGENRE=Country
TTITLE0=It All Depends On You
TTITLE1=Better Off Believin'
TTITLE2=Straight To My Heart
TTITLE3=By Now
TTITLE4=The Ways Of The World
TTITLE5=Mind To Change
TTITLE6=There Ain't Nothin' In The World
TTITLE7=Someone Before Me
TTITLE8=Half Empty
TTITLE9=When It Rains I Get Wet
TTITLE10=If It Were Only Easy
TTITLE11=Those Shoes
TTITLE12=Blue From Now On
EXTD=
EXTT0=
EXTT1=
EXTT2=
EXTT3=
EXTT4=
EXTT5=
EXTT6=
EXTT7=
EXTT8=
EXTT9=
EXTT10=
EXTT11=
EXTT12=
PLAYORDER=
